<svg width="1677" height="8286" viewBox="0 0 1677 8286" fill="none" xmlns="http://www.w3.org/2000/svg">
<g clip-path="url(#clip0_183_2453)">
<rect width="1676.36" height="8285.47" fill="#11151D"/>
<g opacity="0.3">
<g filter="url(#filter0_f_183_2453)">
<path fill-rule="evenodd" clip-rule="evenodd" d="M1.16323 894.108C-6.41665 804.575 23.0889 706.493 88.4671 644.854C151.106 585.798 252.571 610.854 333.305 580.964C405.665 554.174 459.132 472.144 535.972 479.174C612.931 486.214 660.457 563.642 717.222 616.084C772.082 666.764 852.459 706.719 862.405 780.741C872.399 855.128 791.95 908.741 766.006 979.169C742.526 1042.91 753.849 1115.29 717.925 1172.94C673.966 1243.49 623.679 1341.33 540.56 1340.95C453.683 1340.56 426.121 1212.66 349.738 1171.27C281.642 1134.36 189.117 1165.84 128.493 1117.64C59.9861 1063.17 8.54655 981.319 1.16323 894.108Z" fill="#0413F5"/>
</g>
<g filter="url(#filter1_f_183_2453)">
<path fill-rule="evenodd" clip-rule="evenodd" d="M917.248 1043.33C862.656 1004.19 822.353 951.478 789.171 893.074C749.16 822.65 697.947 750.933 705.295 670.271C712.998 585.709 763.687 507.64 829.203 453.624C893.15 400.902 979.128 361.946 1060.56 377.368C1138.65 392.158 1174.27 481.635 1236.72 530.802C1279.07 564.143 1325.09 586.848 1368.02 619.44C1432.21 668.174 1520.87 694.939 1551.23 769.592C1583.9 849.906 1590.99 959.771 1532.46 1023.74C1472.05 1089.77 1361.76 1055.18 1273.98 1072.63C1212.32 1084.89 1155.89 1116.2 1093.22 1111.05C1029.29 1105.8 969.386 1080.71 917.248 1043.33Z" fill="#DF6439"/>
</g>
<g filter="url(#filter2_f_183_2453)">
<path fill-rule="evenodd" clip-rule="evenodd" d="M296.86 894.108C289.281 804.575 318.786 706.493 384.164 644.854C446.804 585.798 548.269 610.854 629.002 580.964C701.362 554.174 754.829 472.144 831.669 479.174C908.629 486.214 956.154 563.642 1012.92 616.084C1067.78 666.764 1148.16 706.719 1158.1 780.741C1168.1 855.128 1087.65 908.741 1061.7 979.169C1038.22 1042.91 1049.55 1115.29 1013.62 1172.94C969.663 1243.49 919.376 1341.33 836.257 1340.95C749.38 1340.56 721.818 1212.66 645.435 1171.27C577.34 1134.36 484.815 1165.84 424.19 1117.64C355.683 1063.17 304.244 981.319 296.86 894.108Z" fill="#7F7AF7"/>
</g>
<g filter="url(#filter3_f_183_2453)">
<path fill-rule="evenodd" clip-rule="evenodd" d="M466.661 789.874C412.069 750.736 371.766 698.023 338.584 639.619C298.573 569.195 247.36 497.479 254.708 416.816C262.411 332.254 313.1 254.185 378.616 200.169C442.563 147.447 528.541 108.491 609.972 123.913C688.065 138.703 723.686 228.18 786.135 277.348C828.482 310.689 874.506 333.393 917.433 365.985C981.621 414.719 1070.28 441.484 1100.65 516.138C1133.31 596.451 1140.4 706.316 1081.88 770.285C1021.46 836.319 911.177 801.725 823.393 819.175C761.728 831.432 705.298 862.742 642.638 857.596C578.701 852.344 518.799 827.251 466.661 789.874Z" fill="#DF6439"/>
</g>
<g filter="url(#filter4_f_183_2453)">
<path fill-rule="evenodd" clip-rule="evenodd" d="M423.588 415.36C416.008 325.827 445.514 227.745 510.892 166.106C573.531 107.05 674.996 132.106 755.73 102.216C828.09 75.4255 881.557 -6.60367 958.396 0.425457C1035.36 7.46559 1082.88 84.8944 1139.65 137.336C1194.51 188.016 1274.88 227.971 1284.83 301.993C1294.82 376.38 1214.38 429.993 1188.43 500.421C1164.95 564.16 1176.27 636.546 1140.35 694.195C1096.39 764.739 1046.1 862.585 962.985 862.207C876.107 861.812 848.545 733.915 772.163 692.52C704.067 655.616 611.542 687.094 550.918 638.89C482.411 584.419 430.971 502.571 423.588 415.36Z" fill="#7F7AF7"/>
</g>
</g>
<g opacity="0.3">
<g filter="url(#filter5_f_183_2453)">
<path fill-rule="evenodd" clip-rule="evenodd" d="M1.16323 2235.06C-6.41665 2145.53 23.0889 2047.45 88.4671 1985.81C151.106 1926.75 252.571 1951.81 333.305 1921.92C405.665 1895.13 459.132 1813.1 535.972 1820.13C612.931 1827.17 660.457 1904.6 717.222 1957.04C772.082 2007.72 852.459 2047.68 862.405 2121.7C872.399 2196.08 791.95 2249.7 766.006 2320.13C742.526 2383.86 753.849 2456.25 717.925 2513.9C673.966 2584.44 623.679 2682.29 540.56 2681.91C453.683 2681.52 426.121 2553.62 349.738 2512.22C281.642 2475.32 189.117 2506.8 128.493 2458.59C59.9861 2404.12 8.54655 2322.28 1.16323 2235.06Z" fill="#0413F5"/>
</g>
<g filter="url(#filter6_f_183_2453)">
<path fill-rule="evenodd" clip-rule="evenodd" d="M917.248 2384.28C862.656 2345.15 822.353 2292.43 789.171 2234.03C749.16 2163.61 697.947 2091.89 705.295 2011.23C712.998 1926.66 763.687 1848.6 829.203 1794.58C893.15 1741.86 979.128 1702.9 1060.56 1718.32C1138.65 1733.11 1174.27 1822.59 1236.72 1871.76C1279.07 1905.1 1325.09 1927.8 1368.02 1960.4C1432.21 2009.13 1520.87 2035.89 1551.23 2110.55C1583.9 2190.86 1590.99 2300.73 1532.46 2364.7C1472.05 2430.73 1361.76 2396.14 1273.98 2413.59C1212.32 2425.84 1155.89 2457.15 1093.22 2452.01C1029.29 2446.76 969.386 2421.66 917.248 2384.28Z" fill="#DF6439"/>
</g>
<g filter="url(#filter7_f_183_2453)">
<path fill-rule="evenodd" clip-rule="evenodd" d="M296.86 2235.06C289.281 2145.53 318.786 2047.45 384.164 1985.81C446.804 1926.75 548.269 1951.81 629.002 1921.92C701.362 1895.13 754.829 1813.1 831.669 1820.13C908.629 1827.17 956.154 1904.6 1012.92 1957.04C1067.78 2007.72 1148.16 2047.68 1158.1 2121.7C1168.1 2196.08 1087.65 2249.7 1061.7 2320.13C1038.22 2383.86 1049.55 2456.25 1013.62 2513.9C969.663 2584.44 919.376 2682.29 836.257 2681.91C749.38 2681.52 721.818 2553.62 645.435 2512.22C577.34 2475.32 484.815 2506.8 424.19 2458.59C355.683 2404.12 304.244 2322.28 296.86 2235.06Z" fill="#7F7AF7"/>
</g>
<g filter="url(#filter8_f_183_2453)">
<path fill-rule="evenodd" clip-rule="evenodd" d="M466.661 2130.83C412.069 2091.69 371.766 2038.98 338.584 1980.58C298.573 1910.15 247.36 1838.43 254.708 1757.77C262.411 1673.21 313.1 1595.14 378.616 1541.12C442.563 1488.4 528.541 1449.45 609.972 1464.87C688.065 1479.66 723.686 1569.14 786.135 1618.3C828.482 1651.64 874.506 1674.35 917.433 1706.94C981.621 1755.68 1070.28 1782.44 1100.65 1857.09C1133.31 1937.41 1140.4 2047.27 1081.88 2111.24C1021.46 2177.28 911.177 2142.68 823.393 2160.13C761.728 2172.39 705.298 2203.7 642.638 2198.55C578.701 2193.3 518.799 2168.21 466.661 2130.83Z" fill="#DF6439"/>
</g>
<g filter="url(#filter9_f_183_2453)">
<path fill-rule="evenodd" clip-rule="evenodd" d="M423.588 1756.32C416.008 1666.78 445.514 1568.7 510.892 1507.06C573.531 1448.01 674.996 1473.06 755.73 1443.17C828.09 1416.38 881.557 1334.35 958.396 1341.38C1035.36 1348.42 1082.88 1425.85 1139.65 1478.29C1194.51 1528.97 1274.88 1568.93 1284.83 1642.95C1294.82 1717.34 1214.38 1770.95 1188.43 1841.38C1164.95 1905.12 1176.27 1977.5 1140.35 2035.15C1096.39 2105.69 1046.1 2203.54 962.985 2203.16C876.107 2202.77 848.545 2074.87 772.163 2033.48C704.067 1996.57 611.542 2028.05 550.918 1979.85C482.411 1925.37 430.971 1843.53 423.588 1756.32Z" fill="#7F7AF7"/>
</g>
</g>
<g opacity="0.3">
<g filter="url(#filter10_f_183_2453)">
<path fill-rule="evenodd" clip-rule="evenodd" d="M1.16323 3576.02C-6.41665 3486.49 23.0889 3388.41 88.4671 3326.77C151.106 3267.71 252.571 3292.77 333.305 3262.88C405.665 3236.09 459.132 3154.06 535.972 3161.09C612.931 3168.13 660.457 3245.55 717.222 3298C772.082 3348.68 852.459 3388.63 862.405 3462.65C872.399 3537.04 791.95 3590.65 766.006 3661.08C742.526 3724.82 753.849 3797.21 717.925 3854.86C673.966 3925.4 623.679 4023.25 540.56 4022.87C453.683 4022.47 426.121 3894.58 349.738 3853.18C281.642 3816.28 189.117 3847.75 128.493 3799.55C59.9861 3745.08 8.54655 3663.23 1.16323 3576.02Z" fill="#0413F5"/>
</g>
<g filter="url(#filter11_f_183_2453)">
<path fill-rule="evenodd" clip-rule="evenodd" d="M917.248 3725.24C862.656 3686.1 822.353 3633.39 789.171 3574.99C749.16 3504.56 697.947 3432.85 705.295 3352.18C712.998 3267.62 763.687 3189.55 829.203 3135.54C893.15 3082.81 979.128 3043.86 1060.56 3059.28C1138.65 3074.07 1174.27 3163.55 1236.72 3212.71C1279.07 3246.06 1325.09 3268.76 1368.02 3301.35C1432.21 3350.09 1520.87 3376.85 1551.23 3451.5C1583.9 3531.82 1590.99 3641.68 1532.46 3705.65C1472.05 3771.69 1361.76 3737.09 1273.98 3754.54C1212.32 3766.8 1155.89 3798.11 1093.22 3792.96C1029.29 3787.71 969.386 3762.62 917.248 3725.24Z" fill="#DF6439"/>
</g>
<g filter="url(#filter12_f_183_2453)">
<path fill-rule="evenodd" clip-rule="evenodd" d="M296.86 3576.02C289.281 3486.49 318.786 3388.41 384.164 3326.77C446.804 3267.71 548.269 3292.77 629.002 3262.88C701.362 3236.09 754.829 3154.06 831.669 3161.09C908.629 3168.13 956.154 3245.55 1012.92 3298C1067.78 3348.68 1148.16 3388.63 1158.1 3462.65C1168.1 3537.04 1087.65 3590.65 1061.7 3661.08C1038.22 3724.82 1049.55 3797.21 1013.62 3854.86C969.663 3925.4 919.376 4023.25 836.257 4022.87C749.38 4022.47 721.818 3894.58 645.435 3853.18C577.34 3816.28 484.815 3847.75 424.19 3799.55C355.683 3745.08 304.244 3663.23 296.86 3576.02Z" fill="#7F7AF7"/>
</g>
<g filter="url(#filter13_f_183_2453)">
<path fill-rule="evenodd" clip-rule="evenodd" d="M466.661 3471.79C412.069 3432.65 371.766 3379.93 338.584 3321.53C298.573 3251.11 247.36 3179.39 254.708 3098.73C262.411 3014.17 313.1 2936.1 378.616 2882.08C442.563 2829.36 528.541 2790.4 609.972 2805.83C688.065 2820.62 723.686 2910.09 786.135 2959.26C828.482 2992.6 874.506 3015.31 917.433 3047.9C981.621 3096.63 1070.28 3123.4 1100.65 3198.05C1133.31 3278.36 1140.4 3388.23 1081.88 3452.2C1021.46 3518.23 911.177 3483.64 823.393 3501.09C761.728 3513.34 705.298 3544.65 642.638 3539.51C578.701 3534.26 518.799 3509.16 466.661 3471.79Z" fill="#DF6439"/>
</g>
<g filter="url(#filter14_f_183_2453)">
<path fill-rule="evenodd" clip-rule="evenodd" d="M423.588 3097.27C416.008 3007.74 445.514 2909.66 510.892 2848.02C573.531 2788.96 674.996 2814.02 755.73 2784.13C828.09 2757.34 881.557 2675.31 958.396 2682.34C1035.36 2689.38 1082.88 2766.81 1139.65 2819.25C1194.51 2869.93 1274.88 2909.88 1284.83 2983.91C1294.82 3058.29 1214.38 3111.91 1188.43 3182.33C1164.95 3246.07 1176.27 3318.46 1140.35 3376.11C1096.39 3446.65 1046.1 3544.5 962.985 3544.12C876.107 3543.72 848.545 3415.83 772.163 3374.43C704.067 3337.53 611.542 3369.01 550.918 3320.8C482.411 3266.33 430.971 3184.48 423.588 3097.27Z" fill="#7F7AF7"/>
</g>
</g>
<g opacity="0.3">
<g filter="url(#filter15_f_183_2453)">
<path fill-rule="evenodd" clip-rule="evenodd" d="M1.16323 4916.98C-6.41665 4827.44 23.0889 4729.36 88.4671 4667.72C151.106 4608.67 252.571 4633.72 333.305 4603.83C405.665 4577.04 459.132 4495.01 535.972 4502.04C612.931 4509.08 660.457 4586.51 717.222 4638.95C772.082 4689.63 852.459 4729.59 862.405 4803.61C872.399 4878 791.95 4931.61 766.006 5002.04C742.526 5065.78 753.849 5138.16 717.925 5195.81C673.966 5266.35 623.679 5364.2 540.56 5363.82C453.683 5363.43 426.121 5235.53 349.738 5194.14C281.642 5157.23 189.117 5188.71 128.493 5140.51C59.9861 5086.03 8.54655 5004.19 1.16323 4916.98Z" fill="#0413F5"/>
</g>
<g filter="url(#filter16_f_183_2453)">
<path fill-rule="evenodd" clip-rule="evenodd" d="M916.814 5066.2C862.222 5027.06 821.92 4974.35 788.738 4915.94C748.726 4845.52 697.513 4773.8 704.861 4693.14C712.564 4608.58 763.253 4530.51 828.769 4476.49C892.716 4423.77 978.694 4384.81 1060.13 4400.24C1138.22 4415.03 1173.84 4504.5 1236.29 4553.67C1278.64 4587.01 1324.66 4609.72 1367.59 4642.31C1431.77 4691.04 1520.43 4717.81 1550.8 4792.46C1583.47 4872.77 1590.56 4982.64 1532.03 5046.61C1471.61 5112.64 1361.33 5078.05 1273.55 5095.5C1211.88 5107.76 1155.45 5139.07 1092.79 5133.92C1028.85 5128.67 968.952 5103.57 916.814 5066.2Z" fill="#DF6439"/>
</g>
<g filter="url(#filter17_f_183_2453)">
<path fill-rule="evenodd" clip-rule="evenodd" d="M916.814 5076.2C862.222 5037.06 821.92 4984.35 788.738 4925.94C748.726 4855.52 697.513 4783.8 704.861 4703.14C712.564 4618.58 763.253 4540.51 828.769 4486.49C892.716 4433.77 978.694 4394.81 1060.13 4410.24C1138.22 4425.03 1173.84 4514.5 1236.29 4563.67C1278.64 4597.01 1324.66 4619.72 1367.59 4652.31C1431.77 4701.04 1520.43 4727.81 1550.8 4802.46C1583.47 4882.77 1590.56 4992.64 1532.03 5056.61C1471.61 5122.64 1361.33 5088.05 1273.55 5105.5C1211.88 5117.76 1155.45 5149.07 1092.79 5143.92C1028.85 5138.67 968.952 5113.57 916.814 5076.2Z" fill="#DF6439"/>
</g>
<g filter="url(#filter18_f_183_2453)">
<path fill-rule="evenodd" clip-rule="evenodd" d="M296.86 5146.49C289.281 5056.96 318.786 4958.88 384.164 4897.24C446.804 4838.18 548.269 4863.24 629.002 4833.35C701.362 4806.56 754.829 4724.53 831.669 4731.56C908.629 4738.6 956.154 4816.03 1012.92 4868.47C1067.78 4919.15 1148.16 4959.11 1158.1 5033.13C1168.1 5107.51 1087.65 5161.13 1061.7 5231.56C1038.22 5295.29 1049.55 5367.68 1013.62 5425.33C969.663 5495.87 919.376 5593.72 836.257 5593.34C749.38 5592.95 721.818 5465.05 645.435 5423.65C577.34 5386.75 484.815 5418.23 424.19 5370.02C355.683 5315.55 304.244 5233.71 296.86 5146.49Z" fill="#7F7AF7"/>
</g>
<g filter="url(#filter19_f_183_2453)">
<path fill-rule="evenodd" clip-rule="evenodd" d="M466.661 4812.74C412.069 4773.6 371.766 4720.89 338.584 4662.49C298.573 4592.06 247.36 4520.35 254.708 4439.68C262.411 4355.12 313.1 4277.05 378.616 4223.04C442.563 4170.32 528.541 4131.36 609.972 4146.78C688.065 4161.57 723.686 4251.05 786.135 4300.22C828.482 4333.56 874.506 4356.26 917.433 4388.85C981.621 4437.59 1070.28 4464.35 1100.65 4539.01C1133.31 4619.32 1140.4 4729.18 1081.88 4793.15C1021.46 4859.19 911.177 4824.59 823.393 4842.04C761.728 4854.3 705.298 4885.61 642.638 4880.46C578.701 4875.21 518.799 4850.12 466.661 4812.74Z" fill="#DF6439"/>
</g>
<g filter="url(#filter20_f_183_2453)">
<path fill-rule="evenodd" clip-rule="evenodd" d="M423.588 4438.23C416.008 4348.69 445.514 4250.61 510.892 4188.97C573.531 4129.92 674.996 4154.97 755.73 4125.08C828.09 4098.29 881.557 4016.26 958.396 4023.29C1035.36 4030.33 1082.88 4107.76 1139.65 4160.2C1194.51 4210.88 1274.88 4250.84 1284.83 4324.86C1294.82 4399.25 1214.38 4452.86 1188.43 4523.29C1164.95 4587.03 1176.27 4659.41 1140.35 4717.06C1096.39 4787.61 1046.1 4885.45 962.985 4885.08C876.107 4884.68 848.545 4756.78 772.163 4715.39C704.067 4678.48 611.542 4709.96 550.918 4661.76C482.411 4607.29 430.971 4525.44 423.588 4438.23Z" fill="#7F7AF7"/>
</g>
</g>
<g opacity="0.3">
<g filter="url(#filter21_f_183_2453)">
<path fill-rule="evenodd" clip-rule="evenodd" d="M1.26675 6497.67C-6.31313 6408.14 23.1925 6310.06 88.5706 6248.42C151.21 6189.36 252.675 6214.42 333.408 6184.53C405.769 6157.74 459.235 6075.71 536.075 6082.74C613.035 6089.78 660.561 6167.2 717.326 6219.65C772.185 6270.33 852.563 6310.28 862.508 6384.3C872.503 6458.69 792.054 6512.3 766.109 6582.73C742.629 6646.47 753.952 6718.86 718.028 6776.51C674.069 6847.05 623.782 6944.9 540.663 6944.52C453.786 6944.12 426.224 6816.23 349.842 6774.83C281.746 6737.93 189.221 6769.4 128.597 6721.2C60.0896 6666.73 8.65007 6584.88 1.26675 6497.67Z" fill="#0413F5"/>
</g>
<g filter="url(#filter22_f_183_2453)">
<path fill-rule="evenodd" clip-rule="evenodd" d="M917.351 6646.89C862.759 6607.75 822.457 6555.04 789.275 6496.64C749.263 6426.21 698.05 6354.5 705.398 6273.83C713.101 6189.27 763.79 6111.2 829.306 6057.19C893.253 6004.46 979.232 5965.51 1060.66 5980.93C1138.76 5995.72 1174.38 6085.2 1236.83 6134.36C1279.17 6167.71 1325.2 6190.41 1368.12 6223C1432.31 6271.74 1520.97 6298.5 1551.34 6373.15C1584 6453.47 1591.09 6563.33 1532.57 6627.3C1472.15 6693.34 1361.87 6658.74 1274.08 6676.19C1212.42 6688.45 1155.99 6719.76 1093.33 6714.61C1029.39 6709.36 969.489 6684.27 917.351 6646.89Z" fill="#DF6439"/>
</g>
<g filter="url(#filter23_f_183_2453)">
<path fill-rule="evenodd" clip-rule="evenodd" d="M296.964 6497.67C289.384 6408.14 318.89 6310.06 384.268 6248.42C446.907 6189.36 548.372 6214.42 629.106 6184.53C701.466 6157.74 754.933 6075.71 831.772 6082.74C908.732 6089.78 956.258 6167.2 1013.02 6219.65C1067.88 6270.33 1148.26 6310.28 1158.21 6384.3C1168.2 6458.69 1087.75 6512.3 1061.81 6582.73C1038.33 6646.47 1049.65 6718.86 1013.73 6776.51C969.767 6847.05 919.479 6944.9 836.361 6944.52C749.483 6944.12 721.921 6816.23 645.539 6774.83C577.443 6737.93 484.918 6769.4 424.294 6721.2C355.787 6666.73 304.347 6584.88 296.964 6497.67Z" fill="#7F7AF7"/>
</g>
<g filter="url(#filter24_f_183_2453)">
<path fill-rule="evenodd" clip-rule="evenodd" d="M347.918 6365.83C293.325 6326.69 253.023 6273.98 219.841 6215.57C179.83 6145.15 128.617 6073.43 135.965 5992.77C143.668 5908.21 194.356 5830.14 259.873 5776.12C323.82 5723.4 409.798 5684.45 491.229 5699.87C569.321 5714.66 604.943 5804.13 667.391 5853.3C709.739 5886.64 755.763 5909.35 798.69 5941.94C862.878 5990.67 951.538 6017.44 981.903 6092.09C1014.57 6172.4 1021.66 6282.27 963.134 6346.24C902.718 6412.27 792.434 6377.68 704.65 6395.13C642.985 6407.39 586.555 6438.7 523.895 6433.55C459.958 6428.3 400.056 6403.21 347.918 6365.83Z" fill="#DF6439"/>
</g>
<g filter="url(#filter25_f_183_2453)">
<path fill-rule="evenodd" clip-rule="evenodd" d="M814.267 6018.92C806.687 5929.39 836.192 5831.31 901.571 5769.67C964.21 5710.61 1065.67 5735.67 1146.41 5705.78C1218.77 5678.99 1272.24 5596.96 1349.08 5603.99C1426.03 5611.03 1473.56 5688.46 1530.33 5740.9C1585.19 5791.58 1665.56 5831.53 1675.51 5905.56C1685.5 5979.94 1605.05 6033.56 1579.11 6103.98C1555.63 6167.72 1566.95 6240.11 1531.03 6297.76C1487.07 6368.3 1436.78 6466.15 1353.66 6465.77C1266.79 6465.37 1239.22 6337.48 1162.84 6296.08C1094.75 6259.18 1002.22 6290.66 941.597 6242.45C873.09 6187.98 821.65 6106.13 814.267 6018.92Z" fill="#7F7AF7"/>
</g>
</g>
<g opacity="0.3">
<g filter="url(#filter26_f_183_2453)">
<path fill-rule="evenodd" clip-rule="evenodd" d="M1674.84 7391.37C1682.42 7480.9 1652.91 7578.98 1587.53 7640.62C1524.89 7699.68 1423.43 7674.62 1342.7 7704.51C1270.33 7731.3 1216.87 7813.33 1140.03 7806.3C1063.07 7799.26 1015.54 7721.83 958.778 7669.39C903.918 7618.71 823.541 7578.76 813.595 7504.73C803.601 7430.35 884.05 7376.73 909.994 7306.31C933.474 7242.57 922.151 7170.18 958.075 7112.53C1002.03 7041.99 1052.32 6944.14 1135.44 6944.52C1222.32 6944.91 1249.88 7072.81 1326.26 7114.21C1394.36 7151.11 1486.88 7119.63 1547.51 7167.84C1616.01 7222.31 1667.45 7304.16 1674.84 7391.37Z" fill="#0413F5"/>
</g>
<g filter="url(#filter27_f_183_2453)">
<path fill-rule="evenodd" clip-rule="evenodd" d="M758.752 7242.15C813.344 7281.28 853.647 7334 886.829 7392.4C926.84 7462.82 978.053 7534.54 970.705 7615.2C963.002 7699.77 912.313 7777.83 846.797 7831.85C782.85 7884.57 696.872 7923.53 615.441 7908.11C537.348 7893.32 501.727 7803.84 439.279 7754.67C396.931 7721.33 350.907 7698.63 307.98 7666.03C243.792 7617.3 155.132 7590.54 124.767 7515.88C92.1007 7435.57 85.0101 7325.7 143.536 7261.73C203.952 7195.7 314.236 7230.29 402.02 7212.85C463.685 7200.59 520.115 7169.28 582.775 7174.42C646.712 7179.68 706.614 7204.77 758.752 7242.15Z" fill="#DF6439"/>
</g>
<g filter="url(#filter28_f_183_2453)">
<path fill-rule="evenodd" clip-rule="evenodd" d="M1379.14 7391.37C1386.72 7480.9 1357.21 7578.98 1291.84 7640.62C1229.2 7699.68 1127.73 7674.62 1047 7704.51C974.638 7731.3 921.171 7813.33 844.331 7806.3C767.371 7799.26 719.846 7721.83 663.08 7669.39C608.221 7618.71 527.843 7578.76 517.898 7504.73C507.903 7430.35 588.352 7376.73 614.297 7306.31C637.777 7242.57 626.454 7170.18 662.378 7112.53C706.337 7041.99 756.624 6944.14 839.743 6944.52C926.62 6944.91 954.182 7072.81 1030.56 7114.21C1098.66 7151.11 1191.19 7119.63 1251.81 7167.84C1320.32 7222.31 1371.76 7304.16 1379.14 7391.37Z" fill="#7F7AF7"/>
</g>
<g filter="url(#filter29_f_183_2453)">
<path fill-rule="evenodd" clip-rule="evenodd" d="M1209.34 7495.6C1263.93 7534.74 1304.23 7587.45 1337.42 7645.86C1377.43 7716.28 1428.64 7788 1421.29 7868.66C1413.59 7953.22 1362.9 8031.29 1297.38 8085.31C1233.44 8138.03 1147.46 8176.98 1066.03 8161.56C987.935 8146.77 952.314 8057.29 889.865 8008.13C847.518 7974.79 801.494 7952.08 758.567 7919.49C694.379 7870.76 605.719 7843.99 575.354 7769.34C542.688 7689.02 535.597 7579.16 594.123 7515.19C654.539 7449.16 764.823 7483.75 852.607 7466.3C914.272 7454.04 970.702 7422.73 1033.36 7427.88C1097.3 7433.13 1157.2 7458.22 1209.34 7495.6Z" fill="#DF6439"/>
</g>
<g filter="url(#filter30_f_183_2453)">
<path fill-rule="evenodd" clip-rule="evenodd" d="M1252.41 7870.11C1259.99 7959.65 1230.49 8057.73 1165.11 8119.37C1102.47 8178.42 1001 8153.37 920.27 8183.26C847.91 8210.05 794.443 8292.08 717.604 8285.05C640.644 8278.01 593.118 8200.58 536.353 8148.14C481.493 8097.46 401.116 8057.5 391.17 7983.48C381.176 7909.09 461.625 7855.48 487.569 7785.05C511.049 7721.31 499.727 7648.93 535.65 7591.28C579.609 7520.74 629.897 7422.89 713.015 7423.27C799.893 7423.66 827.455 7551.56 903.837 7592.95C971.933 7629.86 1064.46 7598.38 1125.08 7646.58C1193.59 7701.06 1245.03 7782.9 1252.41 7870.11Z" fill="#7F7AF7"/>
</g>
</g>
</g>
<defs>
<filter id="filter0_f_183_2453" x="-281.617" y="197.132" width="1426.49" height="1425.44" filterUnits="userSpaceOnUse" color-interpolation-filters="sRGB">
<feFlood flood-opacity="0" result="BackgroundImageFix"/>
<feBlend mode="normal" in="SourceGraphic" in2="BackgroundImageFix" result="shape"/>
<feGaussianBlur stdDeviation="140.808" result="effect1_foregroundBlur_183_2453"/>
</filter>
<filter id="filter1_f_183_2453" x="422.968" y="92.3452" width="1434.84" height="1300.89" filterUnits="userSpaceOnUse" color-interpolation-filters="sRGB">
<feFlood flood-opacity="0" result="BackgroundImageFix"/>
<feBlend mode="normal" in="SourceGraphic" in2="BackgroundImageFix" result="shape"/>
<feGaussianBlur stdDeviation="140.808" result="effect1_foregroundBlur_183_2453"/>
</filter>
<filter id="filter2_f_183_2453" x="14.0807" y="197.132" width="1426.49" height="1425.44" filterUnits="userSpaceOnUse" color-interpolation-filters="sRGB">
<feFlood flood-opacity="0" result="BackgroundImageFix"/>
<feBlend mode="normal" in="SourceGraphic" in2="BackgroundImageFix" result="shape"/>
<feGaussianBlur stdDeviation="140.808" result="effect1_foregroundBlur_183_2453"/>
</filter>
<filter id="filter3_f_183_2453" x="-27.6185" y="-161.11" width="1434.84" height="1300.89" filterUnits="userSpaceOnUse" color-interpolation-filters="sRGB">
<feFlood flood-opacity="0" result="BackgroundImageFix"/>
<feBlend mode="normal" in="SourceGraphic" in2="BackgroundImageFix" result="shape"/>
<feGaussianBlur stdDeviation="140.808" result="effect1_foregroundBlur_183_2453"/>
</filter>
<filter id="filter4_f_183_2453" x="140.808" y="-281.616" width="1426.49" height="1425.44" filterUnits="userSpaceOnUse" color-interpolation-filters="sRGB">
<feFlood flood-opacity="0" result="BackgroundImageFix"/>
<feBlend mode="normal" in="SourceGraphic" in2="BackgroundImageFix" result="shape"/>
<feGaussianBlur stdDeviation="140.808" result="effect1_foregroundBlur_183_2453"/>
</filter>
<filter id="filter5_f_183_2453" x="-281.617" y="1538.09" width="1426.49" height="1425.44" filterUnits="userSpaceOnUse" color-interpolation-filters="sRGB">
<feFlood flood-opacity="0" result="BackgroundImageFix"/>
<feBlend mode="normal" in="SourceGraphic" in2="BackgroundImageFix" result="shape"/>
<feGaussianBlur stdDeviation="140.808" result="effect1_foregroundBlur_183_2453"/>
</filter>
<filter id="filter6_f_183_2453" x="422.968" y="1433.3" width="1434.84" height="1300.89" filterUnits="userSpaceOnUse" color-interpolation-filters="sRGB">
<feFlood flood-opacity="0" result="BackgroundImageFix"/>
<feBlend mode="normal" in="SourceGraphic" in2="BackgroundImageFix" result="shape"/>
<feGaussianBlur stdDeviation="140.808" result="effect1_foregroundBlur_183_2453"/>
</filter>
<filter id="filter7_f_183_2453" x="14.0807" y="1538.09" width="1426.49" height="1425.44" filterUnits="userSpaceOnUse" color-interpolation-filters="sRGB">
<feFlood flood-opacity="0" result="BackgroundImageFix"/>
<feBlend mode="normal" in="SourceGraphic" in2="BackgroundImageFix" result="shape"/>
<feGaussianBlur stdDeviation="140.808" result="effect1_foregroundBlur_183_2453"/>
</filter>
<filter id="filter8_f_183_2453" x="-27.6185" y="1179.85" width="1434.84" height="1300.89" filterUnits="userSpaceOnUse" color-interpolation-filters="sRGB">
<feFlood flood-opacity="0" result="BackgroundImageFix"/>
<feBlend mode="normal" in="SourceGraphic" in2="BackgroundImageFix" result="shape"/>
<feGaussianBlur stdDeviation="140.808" result="effect1_foregroundBlur_183_2453"/>
</filter>
<filter id="filter9_f_183_2453" x="140.808" y="1059.34" width="1426.49" height="1425.44" filterUnits="userSpaceOnUse" color-interpolation-filters="sRGB">
<feFlood flood-opacity="0" result="BackgroundImageFix"/>
<feBlend mode="normal" in="SourceGraphic" in2="BackgroundImageFix" result="shape"/>
<feGaussianBlur stdDeviation="140.808" result="effect1_foregroundBlur_183_2453"/>
</filter>
<filter id="filter10_f_183_2453" x="-281.617" y="2879.04" width="1426.49" height="1425.44" filterUnits="userSpaceOnUse" color-interpolation-filters="sRGB">
<feFlood flood-opacity="0" result="BackgroundImageFix"/>
<feBlend mode="normal" in="SourceGraphic" in2="BackgroundImageFix" result="shape"/>
<feGaussianBlur stdDeviation="140.808" result="effect1_foregroundBlur_183_2453"/>
</filter>
<filter id="filter11_f_183_2453" x="422.968" y="2774.26" width="1434.84" height="1300.89" filterUnits="userSpaceOnUse" color-interpolation-filters="sRGB">
<feFlood flood-opacity="0" result="BackgroundImageFix"/>
<feBlend mode="normal" in="SourceGraphic" in2="BackgroundImageFix" result="shape"/>
<feGaussianBlur stdDeviation="140.808" result="effect1_foregroundBlur_183_2453"/>
</filter>
<filter id="filter12_f_183_2453" x="14.0807" y="2879.04" width="1426.49" height="1425.44" filterUnits="userSpaceOnUse" color-interpolation-filters="sRGB">
<feFlood flood-opacity="0" result="BackgroundImageFix"/>
<feBlend mode="normal" in="SourceGraphic" in2="BackgroundImageFix" result="shape"/>
<feGaussianBlur stdDeviation="140.808" result="effect1_foregroundBlur_183_2453"/>
</filter>
<filter id="filter13_f_183_2453" x="-27.6185" y="2520.8" width="1434.84" height="1300.89" filterUnits="userSpaceOnUse" color-interpolation-filters="sRGB">
<feFlood flood-opacity="0" result="BackgroundImageFix"/>
<feBlend mode="normal" in="SourceGraphic" in2="BackgroundImageFix" result="shape"/>
<feGaussianBlur stdDeviation="140.808" result="effect1_foregroundBlur_183_2453"/>
</filter>
<filter id="filter14_f_183_2453" x="140.808" y="2400.3" width="1426.49" height="1425.44" filterUnits="userSpaceOnUse" color-interpolation-filters="sRGB">
<feFlood flood-opacity="0" result="BackgroundImageFix"/>
<feBlend mode="normal" in="SourceGraphic" in2="BackgroundImageFix" result="shape"/>
<feGaussianBlur stdDeviation="140.808" result="effect1_foregroundBlur_183_2453"/>
</filter>
<filter id="filter15_f_183_2453" x="-281.617" y="4220" width="1426.49" height="1425.44" filterUnits="userSpaceOnUse" color-interpolation-filters="sRGB">
<feFlood flood-opacity="0" result="BackgroundImageFix"/>
<feBlend mode="normal" in="SourceGraphic" in2="BackgroundImageFix" result="shape"/>
<feGaussianBlur stdDeviation="140.808" result="effect1_foregroundBlur_183_2453"/>
</filter>
<filter id="filter16_f_183_2453" x="422.535" y="4115.21" width="1434.84" height="1300.89" filterUnits="userSpaceOnUse" color-interpolation-filters="sRGB">
<feFlood flood-opacity="0" result="BackgroundImageFix"/>
<feBlend mode="normal" in="SourceGraphic" in2="BackgroundImageFix" result="shape"/>
<feGaussianBlur stdDeviation="140.808" result="effect1_foregroundBlur_183_2453"/>
</filter>
<filter id="filter17_f_183_2453" x="422.535" y="4125.21" width="1434.84" height="1300.89" filterUnits="userSpaceOnUse" color-interpolation-filters="sRGB">
<feFlood flood-opacity="0" result="BackgroundImageFix"/>
<feBlend mode="normal" in="SourceGraphic" in2="BackgroundImageFix" result="shape"/>
<feGaussianBlur stdDeviation="140.808" result="effect1_foregroundBlur_183_2453"/>
</filter>
<filter id="filter18_f_183_2453" x="14.0807" y="4449.52" width="1426.49" height="1425.44" filterUnits="userSpaceOnUse" color-interpolation-filters="sRGB">
<feFlood flood-opacity="0" result="BackgroundImageFix"/>
<feBlend mode="normal" in="SourceGraphic" in2="BackgroundImageFix" result="shape"/>
<feGaussianBlur stdDeviation="140.808" result="effect1_foregroundBlur_183_2453"/>
</filter>
<filter id="filter19_f_183_2453" x="-27.6185" y="3861.76" width="1434.84" height="1300.89" filterUnits="userSpaceOnUse" color-interpolation-filters="sRGB">
<feFlood flood-opacity="0" result="BackgroundImageFix"/>
<feBlend mode="normal" in="SourceGraphic" in2="BackgroundImageFix" result="shape"/>
<feGaussianBlur stdDeviation="140.808" result="effect1_foregroundBlur_183_2453"/>
</filter>
<filter id="filter20_f_183_2453" x="140.808" y="3741.25" width="1426.49" height="1425.44" filterUnits="userSpaceOnUse" color-interpolation-filters="sRGB">
<feFlood flood-opacity="0" result="BackgroundImageFix"/>
<feBlend mode="normal" in="SourceGraphic" in2="BackgroundImageFix" result="shape"/>
<feGaussianBlur stdDeviation="140.808" result="effect1_foregroundBlur_183_2453"/>
</filter>
<filter id="filter21_f_183_2453" x="-281.513" y="5800.69" width="1426.49" height="1425.44" filterUnits="userSpaceOnUse" color-interpolation-filters="sRGB">
<feFlood flood-opacity="0" result="BackgroundImageFix"/>
<feBlend mode="normal" in="SourceGraphic" in2="BackgroundImageFix" result="shape"/>
<feGaussianBlur stdDeviation="140.808" result="effect1_foregroundBlur_183_2453"/>
</filter>
<filter id="filter22_f_183_2453" x="423.072" y="5695.91" width="1434.84" height="1300.89" filterUnits="userSpaceOnUse" color-interpolation-filters="sRGB">
<feFlood flood-opacity="0" result="BackgroundImageFix"/>
<feBlend mode="normal" in="SourceGraphic" in2="BackgroundImageFix" result="shape"/>
<feGaussianBlur stdDeviation="140.808" result="effect1_foregroundBlur_183_2453"/>
</filter>
<filter id="filter23_f_183_2453" x="14.1843" y="5800.69" width="1426.49" height="1425.44" filterUnits="userSpaceOnUse" color-interpolation-filters="sRGB">
<feFlood flood-opacity="0" result="BackgroundImageFix"/>
<feBlend mode="normal" in="SourceGraphic" in2="BackgroundImageFix" result="shape"/>
<feGaussianBlur stdDeviation="140.808" result="effect1_foregroundBlur_183_2453"/>
</filter>
<filter id="filter24_f_183_2453" x="-146.362" y="5414.84" width="1434.84" height="1300.89" filterUnits="userSpaceOnUse" color-interpolation-filters="sRGB">
<feFlood flood-opacity="0" result="BackgroundImageFix"/>
<feBlend mode="normal" in="SourceGraphic" in2="BackgroundImageFix" result="shape"/>
<feGaussianBlur stdDeviation="140.808" result="effect1_foregroundBlur_183_2453"/>
</filter>
<filter id="filter25_f_183_2453" x="531.487" y="5321.95" width="1426.49" height="1425.44" filterUnits="userSpaceOnUse" color-interpolation-filters="sRGB">
<feFlood flood-opacity="0" result="BackgroundImageFix"/>
<feBlend mode="normal" in="SourceGraphic" in2="BackgroundImageFix" result="shape"/>
<feGaussianBlur stdDeviation="140.808" result="effect1_foregroundBlur_183_2453"/>
</filter>
<filter id="filter26_f_183_2453" x="531.124" y="6662.9" width="1426.49" height="1425.44" filterUnits="userSpaceOnUse" color-interpolation-filters="sRGB">
<feFlood flood-opacity="0" result="BackgroundImageFix"/>
<feBlend mode="normal" in="SourceGraphic" in2="BackgroundImageFix" result="shape"/>
<feGaussianBlur stdDeviation="140.808" result="effect1_foregroundBlur_183_2453"/>
</filter>
<filter id="filter27_f_183_2453" x="-181.804" y="6892.24" width="1434.84" height="1300.89" filterUnits="userSpaceOnUse" color-interpolation-filters="sRGB">
<feFlood flood-opacity="0" result="BackgroundImageFix"/>
<feBlend mode="normal" in="SourceGraphic" in2="BackgroundImageFix" result="shape"/>
<feGaussianBlur stdDeviation="140.808" result="effect1_foregroundBlur_183_2453"/>
</filter>
<filter id="filter28_f_183_2453" x="235.426" y="6662.9" width="1426.49" height="1425.44" filterUnits="userSpaceOnUse" color-interpolation-filters="sRGB">
<feFlood flood-opacity="0" result="BackgroundImageFix"/>
<feBlend mode="normal" in="SourceGraphic" in2="BackgroundImageFix" result="shape"/>
<feGaussianBlur stdDeviation="140.808" result="effect1_foregroundBlur_183_2453"/>
</filter>
<filter id="filter29_f_183_2453" x="268.783" y="7145.7" width="1434.84" height="1300.89" filterUnits="userSpaceOnUse" color-interpolation-filters="sRGB">
<feFlood flood-opacity="0" result="BackgroundImageFix"/>
<feBlend mode="normal" in="SourceGraphic" in2="BackgroundImageFix" result="shape"/>
<feGaussianBlur stdDeviation="140.808" result="effect1_foregroundBlur_183_2453"/>
</filter>
<filter id="filter30_f_183_2453" x="108.699" y="7141.65" width="1426.49" height="1425.44" filterUnits="userSpaceOnUse" color-interpolation-filters="sRGB">
<feFlood flood-opacity="0" result="BackgroundImageFix"/>
<feBlend mode="normal" in="SourceGraphic" in2="BackgroundImageFix" result="shape"/>
<feGaussianBlur stdDeviation="140.808" result="effect1_foregroundBlur_183_2453"/>
</filter>
<clipPath id="clip0_183_2453">
<rect width="1676.36" height="8285.47" fill="white"/>
</clipPath>
</defs>
</svg>
