<svg width="72" height="72" viewBox="0 0 72 72" fill="none" xmlns="http://www.w3.org/2000/svg">
<g clip-path="url(#clip0_113_1615)">
<g opacity="0.1">
<rect width="72" height="72" rx="16" fill="white"/>
</g>
<path fill-rule="evenodd" clip-rule="evenodd" d="M27.9108 37.0039C28.4609 36.9546 28.9468 37.3606 28.9961 37.9107C29.0454 38.4607 28.6394 38.9466 28.0894 38.9959C27.8045 39.0215 27.5239 39.0672 27.2341 39.1371L26.9407 39.2152C26.4429 39.3419 26.1428 39.5366 26.0617 39.7583C25.9795 39.9819 25.9795 40.2571 26.0626 40.4836C26.1084 40.6091 26.4075 40.8326 27.0347 41.0597C27.5539 41.2478 27.8224 41.8212 27.6344 42.3405C27.4463 42.8597 26.8729 43.1282 26.3536 42.9402C25.225 42.5314 24.4767 41.9724 24.1843 41.1707C23.9386 40.5009 23.9386 39.737 24.184 39.0696C24.5185 38.1554 25.2663 37.6238 26.2086 37.3428L26.4134 37.2863C26.9017 37.1435 27.4022 37.0495 27.9108 37.0039ZM43.9726 37.0002L44.0894 37.0039C44.4962 37.0404 44.8979 37.1078 45.2747 37.2017L45.5524 37.277C46.6243 37.5497 47.4571 38.0898 47.8168 39.0697C48.0611 39.7376 48.0611 40.5002 47.8167 41.17C47.4597 42.1455 46.6415 42.6779 45.5642 42.966C45.0307 43.1087 44.4825 42.7918 44.3398 42.2583C44.1971 41.7247 44.514 41.1766 45.0475 41.0339C45.5589 40.8971 45.8581 40.7024 45.9382 40.4836C46.0206 40.2577 46.0206 39.9812 45.9389 39.7578C45.8578 39.5368 45.5573 39.3419 45.0251 39.2059C44.6627 39.0999 44.2905 39.03 43.9108 38.9959C43.3607 38.9466 42.9547 38.4607 43.0041 37.9106C43.0499 37.3999 43.4721 37.0133 43.9726 37.0002ZM36 37.9999C31.5186 37.9999 29.0001 39.2592 29.0001 41.9999C29.0001 44.7407 31.5186 45.9999 36 45.9999C40.4815 45.9999 43.0001 44.7407 43.0001 41.9999C43.0001 39.2592 40.4815 37.9999 36 37.9999ZM36 39.9999C39.5186 39.9999 41.0001 40.7407 41.0001 41.9999C41.0001 43.2592 39.5186 43.9999 36 43.9999C32.4815 43.9999 31.0001 43.2592 31.0001 41.9999C31.0001 40.7406 32.4815 39.9999 36 39.9999Z" fill="white"/>
<g opacity="0.5">
<path fill-rule="evenodd" clip-rule="evenodd" d="M36 26C33.2277 26 31 28.2275 31 30.9995C31 33.7724 33.2275 36 36 36C38.7725 36 41 33.7724 41 30.9995C41 28.2275 38.7723 26 36 26ZM36 28C37.6678 28 39 29.3321 39 30.9995C39 32.6678 37.6679 34 36 34C34.3321 34 33 32.6678 33 30.9995C33 29.3321 34.3322 28 36 28ZM29 28C29.5523 28 30 28.4477 30 29C30 29.5523 29.5523 30 29 30C27.8957 30 27 30.8956 27 32C27 33.0542 27.8161 33.9181 28.8508 33.9945L29 34C29.5523 34 30 34.4477 30 35C30 35.5523 29.5523 36 29 36C26.7912 36 25 34.209 25 32C25 29.791 26.7912 28 29 28ZM43 28C45.2088 28 47 29.791 47 32C47 34.209 45.2088 36 43 36C42.4477 36 42 35.5523 42 35C42 34.4872 42.386 34.0645 42.8834 34.0067L43 34C44.1043 34 45 33.1044 45 32C45 30.8956 44.1043 30 43 30C42.4477 30 42 29.5523 42 29C42 28.4477 42.4477 28 43 28Z" fill="white"/>
</g>
</g>
<defs>
<clipPath id="clip0_113_1615">
<rect width="72" height="72" fill="white"/>
</clipPath>
</defs>
</svg>
