<svg width="72" height="72" viewBox="0 0 72 72" fill="none" xmlns="http://www.w3.org/2000/svg">
<g clip-path="url(#clip0_207_2526)">
<g opacity="0.1">
<rect width="72" height="72" rx="16" fill="white"/>
</g>
<path opacity="0.4" d="M45.3333 31.3334V36.5378C45.3333 36.7781 45.1022 36.9345 44.8724 36.8634C44.1899 36.651 43.4619 36.5578 42.6954 36.5916C39.4463 36.7351 36.7324 39.4487 36.5889 42.6978C36.5551 43.4643 36.6486 44.1923 36.861 44.8748C36.9321 45.1035 36.7757 45.3357 36.5354 45.3357H27.8333C25.4999 45.3357 24.3333 44.169 24.3333 41.8357V31.3357H45.3333V31.3334Z" fill="white"/>
<path d="M41.8333 26.0834H40.3749V24.3334C40.3749 23.8504 39.9829 23.4584 39.4999 23.4584C39.0169 23.4584 38.6249 23.8504 38.6249 24.3334V26.0834H31.0416V24.3334C31.0416 23.8504 30.6496 23.4584 30.1666 23.4584C29.6836 23.4584 29.2916 23.8504 29.2916 24.3334V26.0834H27.8333C25.4999 26.0834 24.3333 27.25 24.3333 29.5834V31.3334H45.3333V29.5834C45.3333 27.25 44.1666 26.0834 41.8333 26.0834Z" fill="white"/>
<path d="M30.19 37.1667C29.546 37.1667 29.0173 36.644 29.0173 36C29.0173 35.356 29.5343 34.8334 30.1783 34.8334H30.19C30.8351 34.8334 31.3566 35.356 31.3566 36C31.3566 36.644 30.834 37.1667 30.19 37.1667ZM36.0022 36C36.0022 35.356 35.4807 34.8334 34.8356 34.8334H34.8239C34.1799 34.8334 33.6632 35.356 33.6632 36C33.6632 36.644 34.1916 37.1667 34.8356 37.1667C35.4807 37.1667 36.0022 36.644 36.0022 36ZM31.3566 40.6667C31.3566 40.0227 30.8351 39.5 30.19 39.5H30.1783C29.5343 39.5 29.0173 40.0227 29.0173 40.6667C29.0173 41.3107 29.546 41.8334 30.19 41.8334C30.834 41.8334 31.3566 41.3107 31.3566 40.6667Z" fill="white"/>
<path d="M42.9999 38.3334C40.4228 38.3334 38.3333 40.4229 38.3333 43C38.3333 45.5772 40.4228 47.6667 42.9999 47.6667C45.5771 47.6667 47.6666 45.5772 47.6666 43C47.6666 40.4229 45.5771 38.3334 42.9999 38.3334ZM44.4583 43.5834H43.5833V44.4584C43.5833 44.7804 43.3219 45.0417 42.9999 45.0417C42.6779 45.0417 42.4166 44.7804 42.4166 44.4584V43.5834H41.5416C41.2196 43.5834 40.9583 43.322 40.9583 43C40.9583 42.678 41.2196 42.4167 41.5416 42.4167H42.4166V41.5417C42.4166 41.2197 42.6779 40.9584 42.9999 40.9584C43.3219 40.9584 43.5833 41.2197 43.5833 41.5417V42.4167H44.4583C44.7803 42.4167 45.0416 42.678 45.0416 43C45.0416 43.322 44.7803 43.5834 44.4583 43.5834Z" fill="white"/>
</g>
<defs>
<clipPath id="clip0_207_2526">
<rect width="72" height="72" fill="white"/>
</clipPath>
</defs>
</svg>
