<svg width="72" height="72" viewBox="0 0 72 72" fill="none" xmlns="http://www.w3.org/2000/svg">
<g clip-path="url(#clip0_207_2509)">
<g opacity="0.1">
<rect width="72" height="72" rx="16" fill="white"/>
</g>
<path opacity="0.4" d="M35.9999 47.6667C42.4432 47.6667 47.6666 42.4434 47.6666 36C47.6666 29.5567 42.4432 24.3334 35.9999 24.3334C29.5566 24.3334 24.3333 29.5567 24.3333 36C24.3333 42.4434 29.5566 47.6667 35.9999 47.6667Z" fill="white"/>
<path d="M40.2349 30.2484L34.5649 32.4533C33.6199 32.8266 32.8733 33.5733 32.4999 34.5066L30.2483 40.2234C29.8749 41.1918 30.8316 42.1366 31.7883 41.7399L37.4699 39.4416C38.3916 39.0683 39.1266 38.3333 39.4883 37.4116L41.7516 31.7765C42.1249 30.8198 41.1916 29.8751 40.2349 30.2484ZM35.9999 37.1666C35.3583 37.1666 34.8333 36.6416 34.8333 36C34.8333 35.3583 35.3583 34.8333 35.9999 34.8333C36.6416 34.8333 37.1666 35.3583 37.1666 36C37.1666 36.6416 36.6416 37.1666 35.9999 37.1666Z" fill="white"/>
</g>
<defs>
<clipPath id="clip0_207_2509">
<rect width="72" height="72" fill="white"/>
</clipPath>
</defs>
</svg>
