<svg width="65" height="66" viewBox="0 0 65 66" fill="none" xmlns="http://www.w3.org/2000/svg">
<g clip-path="url(#clip0_113_1318)">
<g opacity="0.56">
<path fill-rule="evenodd" clip-rule="evenodd" d="M32.5 62.5C48.7924 62.5 62 49.2924 62 33C62 16.7076 48.7924 3.5 32.5 3.5C16.2076 3.5 3 16.7076 3 33C3 49.2924 16.2076 62.5 32.5 62.5Z" stroke="white" stroke-width="1.22917"/>
</g>
<g clip-path="url(#clip1_113_1318)" filter="url(#filter0_d_113_1318)">
<path opacity="0.1" fill-rule="evenodd" clip-rule="evenodd" d="M32.5 55.125C44.7193 55.125 54.625 45.2193 54.625 33C54.625 20.7807 44.7193 10.875 32.5 10.875C20.2807 10.875 10.375 20.7807 10.375 33C10.375 45.2193 20.2807 55.125 32.5 55.125Z" fill="white"/>
<path d="M31.9161 39V28.38C31.4178 28.8913 30.6902 29.1339 29.7331 29.1077V27.2C30.3231 27.2 30.8213 27.0492 31.2277 26.7477C31.6473 26.4461 31.8767 25.9413 31.9161 25.2333H34.0794V39H31.9161Z" fill="white"/>
</g>
</g>
<defs>
<filter id="filter0_d_113_1318" x="-8.0625" y="4.72917" width="81.125" height="81.125" filterUnits="userSpaceOnUse" color-interpolation-filters="sRGB">
<feFlood flood-opacity="0" result="BackgroundImageFix"/>
<feColorMatrix in="SourceAlpha" type="matrix" values="0 0 0 0 0 0 0 0 0 0 0 0 0 0 0 0 0 0 127 0" result="hardAlpha"/>
<feOffset dy="12.2917"/>
<feGaussianBlur stdDeviation="9.21875"/>
<feColorMatrix type="matrix" values="0 0 0 0 0.0823529 0 0 0 0 0.145098 0 0 0 0 0.278431 0 0 0 0.15 0"/>
<feBlend mode="normal" in2="BackgroundImageFix" result="effect1_dropShadow_113_1318"/>
<feBlend mode="normal" in="SourceGraphic" in2="effect1_dropShadow_113_1318" result="shape"/>
</filter>
<clipPath id="clip0_113_1318">
<rect width="65" height="65" fill="white" transform="translate(0 0.5)"/>
</clipPath>
<clipPath id="clip1_113_1318">
<rect width="44.25" height="44.25" fill="white" transform="translate(10.375 10.875)"/>
</clipPath>
</defs>
</svg>
