<svg width="123" height="133" viewBox="0 0 123 133" fill="none" xmlns="http://www.w3.org/2000/svg">
<path d="M100.976 79.4912C101.183 78.9336 101.49 78.4312 101.897 77.984C102.308 77.5382 102.76 77.2081 103.253 76.9938L103.803 77.8005C103.385 77.9745 102.999 78.2407 102.645 78.5991C102.294 78.9589 102.034 79.3664 101.865 79.8217C101.68 80.3193 101.64 80.7801 101.743 81.2041C101.85 81.6295 102.082 81.9084 102.438 82.0408C102.537 82.0775 102.637 82.0964 102.737 82.0974C102.84 82.0997 102.933 82.0922 103.016 82.0748C103.102 82.0586 103.193 82.02 103.288 81.9589C103.387 81.8991 103.469 81.8453 103.535 81.7976C103.599 81.7533 103.677 81.6797 103.767 81.5767C103.861 81.4751 103.931 81.3965 103.976 81.3408C104.023 81.29 104.089 81.2023 104.176 81.0778C104.264 80.9581 104.322 80.8791 104.348 80.8406C104.374 80.8022 104.426 80.723 104.503 80.6029C104.659 80.3556 104.819 80.13 104.983 79.9259C105.15 79.7267 105.337 79.5371 105.544 79.3571C105.754 79.182 105.964 79.0432 106.175 78.9408C106.388 78.8432 106.621 78.7874 106.875 78.7734C107.13 78.7594 107.384 78.7996 107.638 78.894C108.259 79.1248 108.67 79.5587 108.871 80.1957C109.071 80.8363 109.025 81.5483 108.734 82.3317C108.543 82.847 108.283 83.2867 107.955 83.6508C107.626 84.0184 107.266 84.2825 106.877 84.4432L106.313 83.6914C106.615 83.5707 106.91 83.3567 107.196 83.0496C107.482 82.746 107.699 82.393 107.849 81.9907C108.025 81.5178 108.061 81.0854 107.957 80.6936C107.856 80.3065 107.636 80.0501 107.297 79.9242C106.683 79.696 106.031 80.1325 105.341 81.2336C105.268 81.355 105.193 81.4698 105.116 81.5779C105.039 81.6897 104.933 81.8272 104.8 81.9907C104.666 82.1577 104.531 82.3044 104.396 82.4308C104.263 82.5621 104.105 82.6884 103.924 82.8097C103.741 82.9345 103.557 83.0289 103.373 83.0929C103.192 83.1582 102.991 83.1919 102.769 83.1939C102.546 83.1994 102.323 83.1608 102.101 83.0782C101.469 82.8435 101.049 82.3843 100.842 81.7006C100.636 81.0217 100.681 80.2853 100.976 79.4912Z" fill="white"/>
<path d="M98.1376 85.5968C98.4277 85.0862 98.808 84.6873 99.2785 84.4004C99.7522 84.1153 100.262 83.9695 100.807 83.963C101.353 83.9616 101.876 84.1032 102.377 84.3877C102.878 84.6722 103.266 85.0486 103.542 85.5168C103.818 85.99 103.954 86.5022 103.948 87.0533C103.946 87.6062 103.8 88.138 103.509 88.6486C103.223 89.1528 102.846 89.545 102.38 89.8255C101.916 90.1077 101.42 90.2526 100.892 90.26L100.867 89.2521C101.235 89.253 101.579 89.1583 101.899 88.9679C102.223 88.7793 102.481 88.5149 102.675 88.1744C102.974 87.6474 103.047 87.1083 102.892 86.5572C102.737 86.0061 102.397 85.5808 101.87 85.2814C101.343 84.982 100.803 84.907 100.25 85.0564C99.6978 85.2058 99.2718 85.544 98.9724 86.0711C98.779 86.4115 98.6841 86.769 98.6879 87.1435C98.6916 87.518 98.788 87.8629 98.9769 88.1781L98.0984 88.6727C97.8311 88.2134 97.6993 87.7098 97.703 87.1621C97.7082 86.6194 97.8531 86.0977 98.1376 85.5968Z" fill="white"/>
<path d="M99.1195 95.0536L99.0007 95.2116L98.1794 94.5936L98.2982 94.4356C98.6717 93.9393 98.8212 93.4369 98.7467 92.9285C98.673 92.4254 98.3894 91.9882 97.896 91.617L95.5404 89.8445L96.138 89.0503L100.849 92.5952L100.252 93.3894L99.4393 92.7782C99.7535 93.5942 99.6469 94.3527 99.1195 95.0536Z" fill="white"/>
<path d="M91.7527 94.0636C92.1638 93.6441 92.6335 93.3558 93.1617 93.1987C93.6926 93.0443 94.2223 93.0336 94.7508 93.1667C95.2793 93.3052 95.7493 93.576 96.1607 93.9791C96.5721 94.3823 96.851 94.8454 96.9974 95.3684C97.1438 95.8967 97.1438 96.4265 96.9974 96.9578C96.8537 97.4917 96.5763 97.9684 96.1652 98.3879C95.5433 99.0225 94.8118 99.3467 93.9706 99.3605C93.1268 99.377 92.3917 99.0783 91.7652 98.4643C91.1387 97.8503 90.8251 97.1213 90.8246 96.2773C90.8214 95.4361 91.1308 94.6982 91.7527 94.0636ZM92.4384 94.7355C92.0168 95.1658 91.8115 95.6657 91.8225 96.2353C91.831 96.8076 92.0517 97.3059 92.4846 97.7302C92.9175 98.1545 93.4201 98.365 93.9925 98.3619C94.5622 98.3615 95.0579 98.1462 95.4796 97.7159C95.9038 97.283 96.1117 96.7804 96.1033 96.2081C96.0949 95.6358 95.8742 95.1375 95.4413 94.7132C95.0083 94.289 94.5057 94.0784 93.9333 94.0815C93.361 94.0846 92.8627 94.3026 92.4384 94.7355Z" fill="white"/>
<path d="M88.895 96.9066L94.1667 103.356L93.3971 103.985L88.1255 97.5357L88.895 96.9066Z" fill="white"/>
<path d="M86.8183 98.5402L91.6798 105.304L90.8727 105.884L86.0112 99.1203L86.8183 98.5402Z" fill="white"/>
<path d="M81.6439 111.053L80.7437 111.474L77.2127 103.93L78.1129 103.508L78.5629 104.47C78.6318 104.022 78.8015 103.616 79.072 103.253C79.3406 102.894 79.6932 102.613 80.1297 102.408C80.6309 102.174 81.1428 102.082 81.6653 102.132C82.1894 102.186 82.6671 102.372 83.0985 102.69C83.5281 103.013 83.8649 103.435 84.1091 103.957C84.3533 104.478 84.4609 105.006 84.4319 105.539C84.4011 106.077 84.2378 106.563 83.9419 106.997C83.6476 107.434 83.2499 107.769 82.7486 108.004C82.3122 108.208 81.8694 108.297 81.4204 108.27C80.9696 108.248 80.5501 108.121 80.1621 107.887L81.6439 111.053ZM80.3679 103.357C79.8223 103.612 79.4549 104.009 79.2658 104.546C79.0733 105.085 79.1056 105.629 79.3625 106.178C79.6195 106.727 80.0165 107.1 80.5538 107.298C81.0876 107.497 81.6273 107.469 82.1729 107.214C82.7219 106.957 83.0926 106.559 83.2851 106.02C83.4776 105.481 83.4454 104.936 83.1884 104.387C82.9315 103.839 82.5344 103.465 81.9972 103.268C81.46 103.07 80.9169 103.1 80.3679 103.357Z" fill="white"/>
<path d="M73.1127 105.045C73.6788 104.888 74.2297 104.875 74.7654 105.004C75.3021 105.137 75.7656 105.393 76.1559 105.774C76.5436 106.159 76.8142 106.629 76.9676 107.184C77.1211 107.739 77.1299 108.28 76.994 108.806C76.8555 109.336 76.5896 109.794 76.1964 110.18C75.8041 110.57 75.3249 110.843 74.7588 111C73.9024 111.236 73.107 111.15 72.3725 110.739C71.6344 110.33 71.1485 109.703 70.9148 108.857C70.6811 108.012 70.7757 107.224 71.1989 106.494C71.6184 105.764 72.2563 105.281 73.1127 105.045ZM73.3685 105.97C72.7879 106.13 72.3594 106.46 72.0831 106.958C71.8032 107.457 71.7439 107.999 71.9055 108.583C72.067 109.168 72.396 109.602 72.8926 109.887C73.3856 110.172 73.9224 110.235 74.503 110.074C75.0873 109.913 75.5194 109.582 75.7993 109.083C76.0793 108.584 76.1385 108.042 75.977 107.458C75.8155 106.874 75.4864 106.439 74.9898 106.155C74.4932 105.87 73.9527 105.808 73.3685 105.97Z" fill="white"/>
<path d="M62.0412 112.717L60.9544 112.801L62.6598 106.757L63.6958 106.677L65.6845 111.259L66.9504 106.427L67.9865 106.348L70.5944 112.061L69.4795 112.146L67.5276 107.601L66.2699 112.393L65.2564 112.47L63.2699 107.916L62.0412 112.717Z" fill="white"/>
<path d="M56.2909 112.351C55.5764 112.27 55.0268 111.987 54.6422 111.504C54.2538 111.021 54.1004 110.42 54.1819 109.701L54.5929 106.082L55.5805 106.194L55.2046 109.505C55.1451 110.029 55.2527 110.465 55.5275 110.815C55.8019 111.168 56.1991 111.374 56.7191 111.433C57.2615 111.495 57.7137 111.383 58.0757 111.098C58.4377 110.814 58.6487 110.408 58.7086 109.88L59.082 106.592L60.0696 106.704L59.4043 112.562L58.4167 112.45L58.518 111.558C57.9648 112.192 57.2224 112.456 56.2909 112.351Z" fill="white"/>
<path d="M45.8629 111.456C46.4638 111.653 46.8577 111.467 47.0444 110.899L47.2804 110.18L45.6653 109.649L45.9454 108.796L47.5605 109.326L49.1193 104.578L50.0637 104.888L48.5048 109.636L49.5243 109.971L49.2442 110.824L48.2248 110.49L47.9676 111.273C47.7926 111.806 47.5187 112.17 47.1457 112.364C46.7728 112.559 46.3162 112.567 45.7761 112.39C45.4219 112.274 45.1235 112.091 44.8806 111.841L45.1554 111.004C45.3588 111.217 45.5946 111.368 45.8629 111.456Z" fill="white"/>
<path d="M43.8855 102.301C44.4139 102.557 44.8366 102.911 45.1534 103.362C45.4687 103.816 45.6472 104.315 45.689 104.858C45.7258 105.403 45.6184 105.935 45.367 106.453C45.1155 106.972 44.7651 107.383 44.3158 107.688C43.8614 107.995 43.3591 108.164 42.8088 108.194C42.2569 108.227 41.7168 108.116 41.1884 107.859C40.389 107.471 39.8491 106.881 39.5685 106.088C39.2846 105.293 39.3342 104.501 39.7171 103.712C40.1001 102.923 40.6916 102.394 41.4916 102.125C42.2882 101.854 43.0862 101.913 43.8855 102.301ZM43.4664 103.165C42.9245 102.902 42.3852 102.866 41.8487 103.058C41.3087 103.248 40.9064 103.615 40.6418 104.16C40.3772 104.706 40.3374 105.249 40.5223 105.791C40.7038 106.331 41.0655 106.733 41.6075 106.996C42.1528 107.26 42.6955 107.298 43.2354 107.108C43.7754 106.918 44.1776 106.55 44.4423 106.005C44.7069 105.459 44.7467 104.916 44.5618 104.374C44.3769 103.832 44.0118 103.429 43.4664 103.165Z" fill="white"/>
<path d="M34.511 103.877L34.3458 103.768L34.91 102.909L35.0752 103.017C35.5944 103.358 36.1053 103.476 36.6079 103.369C37.1053 103.263 37.5234 102.952 37.8624 102.436L39.4806 99.9718L40.3114 100.517L37.0749 105.446L36.2442 104.9L36.8022 104.05C36.0079 104.416 35.2442 104.358 34.511 103.877Z" fill="white"/>
<path d="M25.7681 95.9159C25.3074 95.4189 25.0892 94.8845 25.1135 94.3126C25.1325 93.7405 25.3905 93.2241 25.8874 92.7634L28.6787 90.1756L29.3545 90.9045L26.7661 93.3042C26.421 93.6241 26.2422 93.9823 26.2299 94.3788C26.2123 94.7751 26.3621 95.1444 26.6795 95.4868C27.0071 95.8402 27.3757 96.0273 27.7852 96.0481C28.1947 96.0689 28.5733 95.9181 28.9212 95.5956L31.4931 93.2113L32.1688 93.9402L29.5804 96.3398C29.2353 96.6598 29.0566 97.018 29.0442 97.4145C29.0266 97.8108 29.1764 98.1801 29.4938 98.5225C29.8215 98.8759 30.19 99.063 30.5995 99.0838C31.009 99.1046 31.3877 98.9538 31.7355 98.6312L34.3074 96.247L34.9831 96.9758L30.6595 100.984L29.9837 100.255L30.5677 99.714C29.8047 99.8103 29.1379 99.5506 28.5671 98.935C28.2548 98.5981 28.0568 98.235 27.9729 97.8455C27.8891 97.456 27.9222 97.0737 28.0723 96.6984C27.6479 96.7889 27.2384 96.7681 26.8438 96.6359C26.4467 96.501 26.0881 96.261 25.7681 95.9159Z" fill="white"/>
<path d="M26.5752 86.376C26.8769 86.88 27.0368 87.4073 27.0551 87.9581C27.07 88.5108 26.9463 89.0259 26.6837 89.5035C26.4159 89.9797 26.0349 90.3658 25.5407 90.6617C25.0465 90.9577 24.5279 91.1102 23.9849 91.1194C23.4367 91.1273 22.9241 90.9932 22.4472 90.717C21.9671 90.4428 21.5762 90.0538 21.2745 89.5499C20.818 88.7875 20.6896 87.9978 20.8892 87.1805C21.0869 86.36 21.5621 85.7245 22.3147 85.2738C23.0673 84.8232 23.8519 84.7045 24.6685 84.9177C25.4832 85.1276 26.1187 85.6137 26.5752 86.376ZM25.7515 86.8692C25.442 86.3524 25.0104 86.0272 24.4565 85.8937C23.9007 85.757 23.3628 85.8443 22.8427 86.1557C22.3226 86.4671 21.9917 86.9 21.8498 87.4545C21.7059 88.0058 21.7887 88.5398 22.0982 89.0567C22.4095 89.5767 22.8431 89.9051 23.3989 90.0419C23.9547 90.1786 24.4927 90.0913 25.0127 89.7799C25.5328 89.4685 25.8638 89.0356 26.0057 88.4811C26.1476 87.9266 26.0629 87.3893 25.7515 86.8692Z" fill="white"/>
<path d="M17.8511 82.5739L17.7719 82.3928L18.7136 81.981L18.7928 82.1621C19.0417 82.7312 19.4058 83.1082 19.8853 83.293C20.3597 83.4759 20.8798 83.4436 21.4455 83.1962L24.1464 82.015L24.5447 82.9257L19.1429 85.2881L18.7446 84.3774L19.676 83.9701C18.8109 83.843 18.2026 83.3776 17.8511 82.5739Z" fill="white"/>
<path d="M18.5198 74.6332C18.574 74.6173 18.7176 74.5852 18.9505 74.5367L20.375 79.4097C20.8451 79.1664 21.1789 78.8119 21.3762 78.3463C21.5688 77.8781 21.5854 77.3712 21.4259 76.8255C21.3076 76.4208 21.1138 76.0734 20.8447 75.7834C20.5719 75.4944 20.2721 75.2938 19.9451 75.1815L20.3171 74.3608C20.7836 74.5343 21.1936 74.8165 21.5471 75.2074C21.8996 75.5947 22.1551 76.0593 22.3135 76.6014C22.5723 77.4867 22.5023 78.3074 22.1035 79.0633C21.7048 79.8192 21.0808 80.3213 20.2316 80.5696C19.6823 80.7301 19.1461 80.7476 18.623 80.622C18.0952 80.4939 17.6365 80.2396 17.2468 79.8593C16.8572 79.479 16.581 79.0106 16.4183 78.4541C16.2567 77.9012 16.2382 77.3614 16.3627 76.8347C16.4872 76.308 16.7396 75.8498 17.12 75.4601C17.4967 75.0715 17.9633 74.7958 18.5198 74.6332ZM17.2996 78.2082C17.4433 78.6997 17.721 79.0794 18.1327 79.3474C18.5408 79.6164 19.0002 79.7253 19.5109 79.6741L18.3716 75.7767C17.9066 76.0107 17.5763 76.3505 17.381 76.7959C17.182 77.2424 17.1549 77.7132 17.2996 78.2082Z" fill="white"/>
<path d="M22.5373 53.2504C22.3607 53.8185 22.0814 54.3368 21.6992 54.8055C21.3133 55.273 20.88 55.6272 20.399 55.868L19.8063 55.0924C20.2143 54.8959 20.5853 54.6091 20.9194 54.2319C21.2498 53.8537 21.4871 53.4326 21.6313 52.9688C21.7888 52.4619 21.8044 51.9996 21.678 51.5818C21.548 51.1629 21.3014 50.897 20.9383 50.7841C20.8376 50.7529 20.7373 50.7394 20.6374 50.7439C20.5339 50.7472 20.4412 50.7598 20.3595 50.7817C20.2742 50.8025 20.1858 50.846 20.0942 50.9121C19.9991 50.9772 19.9199 51.0354 19.8567 51.0867C19.7945 51.1344 19.7211 51.2121 19.6364 51.3198C19.548 51.4264 19.483 51.5087 19.4413 51.5667C19.3972 51.62 19.3353 51.7112 19.2558 51.8402C19.1738 51.9645 19.1207 52.0466 19.0965 52.0864C19.0723 52.1262 19.0251 52.2081 18.955 52.3322C18.8126 52.5876 18.6649 52.8216 18.5121 53.0343C18.3568 53.2423 18.1804 53.4418 17.9831 53.6328C17.7833 53.819 17.5809 53.9691 17.376 54.0828C17.1687 54.1918 16.9385 54.2602 16.6854 54.288C16.4323 54.3158 16.1763 54.2895 15.9175 54.209C15.2847 54.0124 14.8506 53.6015 14.6152 52.9763C14.3808 52.3476 14.3877 51.6342 14.6358 50.836C14.7989 50.3111 15.0344 49.8579 15.3422 49.4766C15.651 49.0916 15.9954 48.8083 16.3751 48.6267L16.9793 49.3467C16.6843 49.4837 16.402 49.7133 16.1324 50.0356C15.8638 50.3543 15.6658 50.7185 15.5384 51.1284C15.3887 51.6101 15.3761 52.0439 15.5007 52.4295C15.6228 52.8105 15.8564 53.0546 16.2015 53.1619C16.8271 53.3563 17.4546 52.885 18.0839 51.748C18.1504 51.6228 18.2189 51.5041 18.2892 51.392C18.3607 51.2762 18.4584 51.1331 18.5823 50.9626C18.7074 50.7886 18.834 50.6348 18.9623 50.5012C19.0881 50.3629 19.2384 50.2282 19.4131 50.0972C19.589 49.9626 19.7673 49.8584 19.948 49.7844C20.1251 49.7094 20.3242 49.6648 20.5454 49.6508C20.7677 49.6331 20.9921 49.6595 21.2186 49.7299C21.8622 49.9299 22.3063 50.3656 22.5511 51.037C22.7933 51.7037 22.7887 52.4415 22.5373 53.2504Z" fill="white"/>
<path d="M25.0391 46.9995C24.7772 47.5252 24.4192 47.9441 23.965 48.2563C23.5075 48.5667 23.0068 48.74 22.463 48.7761C21.9175 48.8072 21.387 48.6943 20.8714 48.4374C20.3558 48.1805 19.9479 47.8258 19.6475 47.3733C19.3455 46.9158 19.1823 46.4118 19.158 45.8612C19.1302 45.309 19.2474 44.77 19.5093 44.2443C19.7678 43.7254 20.1225 43.3132 20.5733 43.0078C21.0208 42.7008 21.508 42.5292 22.0349 42.4931L22.1146 43.4982C21.7476 43.5172 21.4093 43.6305 21.0998 43.838C20.7869 44.0439 20.5432 44.322 20.3686 44.6725C20.0983 45.215 20.0552 45.7572 20.2395 46.2991C20.4238 46.841 20.7872 47.2471 21.3298 47.5175C21.8723 47.7878 22.4154 47.8333 22.959 47.6541C23.5026 47.4748 23.9095 47.1139 24.1798 46.5714C24.3544 46.2209 24.4297 45.8588 24.4056 45.4851C24.3815 45.1113 24.2665 44.7722 24.0607 44.4678L24.911 43.9261C25.2029 44.3702 25.3619 44.8658 25.3879 45.413C25.4123 45.9551 25.296 46.484 25.0391 46.9995Z" fill="white"/>
<path d="M23.5443 37.6101L23.6544 37.446L24.5081 38.0184L24.398 38.1825C24.0521 38.6985 23.9301 39.2083 24.0321 39.7119C24.1331 40.2102 24.4401 40.6313 24.9529 40.9752L27.4014 42.6169L26.8478 43.4424L21.9509 40.159L22.5044 39.3334L23.3487 39.8996C22.9906 39.1019 23.0558 38.3387 23.5443 37.6101Z" fill="white"/>
<path d="M30.9542 38.1981C30.5665 38.6393 30.1132 38.9527 29.5943 39.1382C29.0726 39.3213 28.5443 39.3608 28.0093 39.2566C27.4741 39.1471 26.9901 38.9023 26.5573 38.522C26.1246 38.1418 25.821 37.6946 25.6463 37.1803C25.4714 36.6607 25.4426 36.1317 25.5599 35.5933C25.6743 35.0523 25.9254 34.5613 26.313 34.1201C26.8995 33.4526 27.6123 33.0891 28.4515 33.0296C29.2931 32.9672 30.0435 33.2255 30.7024 33.8045C31.3614 34.3836 31.7141 35.0944 31.7605 35.9371C31.8094 36.7769 31.5407 37.5306 30.9542 38.1981ZM30.233 37.5644C30.6306 37.1118 30.8084 36.6015 30.7664 36.0333C30.7268 35.4623 30.4794 34.9767 30.024 34.5767C29.5687 34.1766 29.0553 33.9936 28.484 34.0279C27.9151 34.0593 27.4319 34.3012 27.0342 34.7537C26.6341 35.2091 26.4539 35.7223 26.4934 36.2933C26.533 36.8643 26.7804 37.3498 27.2358 37.7499C27.6911 38.15 28.2045 38.333 28.7758 38.2987C29.3472 38.2645 29.8329 38.0197 30.233 37.5644Z" fill="white"/>
<path d="M33.653 35.2039L28.0384 29.0505L28.7727 28.3806L34.3872 34.534L33.653 35.2039Z" fill="white"/>
<path d="M35.638 33.4598L30.4159 26.9701L31.1902 26.347L36.4123 32.8367L35.638 33.4598Z" fill="white"/>
<path d="M40.1242 20.6846L41.0001 20.2149L44.9362 27.5562L44.0602 28.0258L43.5585 27.0901C43.5141 27.5411 43.3667 27.9555 43.1164 28.3332C42.8677 28.7058 42.5309 29.0059 42.1062 29.2337C41.6184 29.4952 41.1123 29.6149 40.5878 29.5928C40.0616 29.5674 39.5745 29.4077 39.1264 29.114C38.68 28.8151 38.3207 28.4118 38.0485 27.9041C37.7763 27.3965 37.6402 26.8757 37.6401 26.3417C37.6416 25.8026 37.7782 25.3086 38.0501 24.8595C38.3202 24.4071 38.6991 24.0502 39.1869 23.7887C39.6116 23.561 40.0488 23.4483 40.4986 23.4506C40.95 23.4479 41.3757 23.5528 41.776 23.7654L40.1242 20.6846ZM41.8168 28.2995C42.3477 28.0148 42.6929 27.5991 42.8525 27.0521C43.0154 26.5034 42.9537 25.962 42.6672 25.4278C42.3808 24.8935 41.964 24.5424 41.4169 24.3744C40.873 24.2047 40.3356 24.2621 39.8047 24.5467C39.2705 24.8332 38.922 25.2507 38.7591 25.7994C38.5962 26.3481 38.6579 26.8896 38.9444 27.4238C39.2308 27.958 39.6476 28.3091 40.1947 28.4771C40.7419 28.6451 41.2826 28.5859 41.8168 28.2995Z" fill="white"/>
<path d="M48.9695 26.2197C48.4128 26.4068 47.8634 26.4503 47.3215 26.3504C46.7783 26.2469 46.3015 26.0159 45.8911 25.6573C45.4831 25.2939 45.1874 24.8392 45.0039 24.2932C44.8205 23.7471 44.7823 23.2079 44.8894 22.6755C44.9989 22.1383 45.2394 21.6662 45.6111 21.2594C45.9816 20.8489 46.4452 20.5502 47.002 20.3632C47.8442 20.0802 48.6432 20.1236 49.3989 20.4932C50.1582 20.8617 50.6775 21.4617 50.9568 22.2933C51.2362 23.1248 51.1845 23.9167 50.8017 24.6688C50.4225 25.4198 49.8118 25.9368 48.9695 26.2197ZM48.6638 25.3096C49.2348 25.1178 49.6447 24.7656 49.8935 24.2531C50.1459 23.7394 50.1756 23.1952 49.9825 22.6206C49.7895 22.046 49.4373 21.6301 48.9259 21.373C48.4182 21.1147 47.8787 21.0814 47.3077 21.2732C46.7331 21.4663 46.3196 21.8196 46.0673 22.3334C45.8149 22.8471 45.7852 23.3913 45.9782 23.9659C46.1713 24.5405 46.5235 24.9563 47.0348 25.2135C47.5462 25.4706 48.0892 25.5027 48.6638 25.3096Z" fill="white"/>
<path d="M59.6074 17.9565L60.688 17.8141L59.3139 23.942L58.2837 24.0778L56.0488 19.6103L55.0475 24.5042L54.0173 24.64L51.1026 19.0773L52.2112 18.9312L54.4073 23.3639L55.4026 18.5106L56.4104 18.3778L58.6416 22.8173L59.6074 17.9565Z" fill="white"/>
<path d="M65.3691 18.0098C66.087 18.0519 66.6511 18.3038 67.0615 18.7654C67.4756 19.2272 67.6614 19.8189 67.6191 20.5405L67.4054 24.1768L66.4132 24.1185L66.6086 20.7923C66.6395 20.2662 66.5083 19.836 66.2149 19.502C65.9217 19.1642 65.5139 18.98 64.9915 18.9493C64.4465 18.9173 64.001 19.0533 63.6551 19.3573C63.3091 19.6613 63.1205 20.0783 63.0894 20.6082L62.8953 23.9119L61.9031 23.8536L62.2489 17.9679L63.2411 18.0262L63.1884 18.9226C63.7064 18.2591 64.4333 17.9548 65.3691 18.0098Z" fill="white"/>
<path d="M75.8304 18.3363C75.2196 18.172 74.8365 18.3789 74.681 18.957L74.4844 19.6878L76.1259 20.1293L75.8927 20.9964L74.2512 20.5549L72.9528 25.3812L71.993 25.123L73.2913 20.2967L72.2552 20.0179L72.4884 19.1508L73.5246 19.4296L73.7388 18.6334C73.8845 18.0916 74.1383 17.7135 74.5001 17.4989C74.8619 17.2844 75.3173 17.2509 75.8663 17.3986C76.2262 17.4954 76.5342 17.6621 76.7903 17.8986L76.5615 18.7494C76.3468 18.5474 76.1031 18.4097 75.8304 18.3363Z" fill="white"/>
<path d="M78.3028 27.3701C77.7612 27.1428 77.32 26.8126 76.9791 26.3797C76.6396 25.9432 76.4342 25.4548 76.3629 24.9145C76.2965 24.3722 76.3748 23.8355 76.5977 23.3043C76.8207 22.7732 77.1481 22.3431 77.5802 22.014C78.0172 21.683 78.5096 21.4875 79.0574 21.4275C79.6067 21.364 80.1521 21.4459 80.6937 21.6732C81.513 22.0171 82.0842 22.5773 82.4075 23.354C82.7342 24.1322 82.7278 24.9257 82.3883 25.7346C82.0488 26.5435 81.487 27.1038 80.7028 27.4158C79.9221 27.7291 79.1221 27.7139 78.3028 27.3701ZM78.6743 26.4848C79.2297 26.7179 79.7701 26.7242 80.2955 26.5037C80.8243 26.2847 81.206 25.8957 81.4406 25.3368C81.6751 24.7779 81.6854 24.233 81.4713 23.7022C81.2606 23.1728 80.8776 22.7916 80.3221 22.5585C79.7632 22.3239 79.2194 22.3161 78.6905 22.5352C78.1617 22.7542 77.78 23.1432 77.5455 23.7021C77.3109 24.261 77.3007 24.8059 77.5148 25.3367C77.7289 25.8675 78.1154 26.2502 78.6743 26.4848Z" fill="white"/>
<path d="M87.5775 25.287L87.7484 25.3864L87.2317 26.2749L87.0609 26.1756C86.5238 25.8633 86.0073 25.7742 85.5113 25.9082C85.0204 26.0409 84.6198 26.3741 84.3094 26.9078L82.8276 29.4563L81.9684 28.9566L84.932 23.8598L85.7912 24.3594L85.2803 25.2382C86.0534 24.8298 86.8192 24.8461 87.5775 25.287Z" fill="white"/>
<path d="M96.7405 32.7606C97.2276 33.2318 97.4745 33.7535 97.4814 34.3258C97.4935 34.8981 97.264 35.4278 96.7928 35.9148L94.1464 38.6506L93.432 37.9595L95.8861 35.4227C96.2133 35.0844 96.3722 34.717 96.363 34.3204C96.3591 33.9238 96.1894 33.5632 95.8538 33.2386C95.5075 32.9035 95.1293 32.7367 94.7193 32.7382C94.3093 32.7397 93.9393 32.9109 93.6095 33.2518L91.1711 35.7724L90.4568 35.0814L92.9108 32.5445C93.238 32.2063 93.397 31.8389 93.3878 31.4423C93.3839 31.0456 93.2141 30.685 92.8786 30.3604C92.5322 30.0254 92.1541 29.8586 91.744 29.86C91.334 29.8615 90.9641 30.0327 90.6343 30.3737L88.1959 32.8943L87.4815 32.2032L91.5808 27.9657L92.2952 28.6567L91.7416 29.2291C92.4981 29.0914 93.1781 29.3144 93.7815 29.8981C94.1117 30.2175 94.3292 30.5693 94.4341 30.9537C94.5389 31.338 94.5267 31.7216 94.3972 32.1045C94.816 31.9911 95.226 31.9896 95.6273 32.1001C96.0312 32.2132 96.4023 32.4334 96.7405 32.7606Z" fill="white"/>
<path d="M96.4535 42.33C96.1248 41.8433 95.9364 41.3254 95.8883 40.7765C95.8432 40.2254 95.9388 39.7043 96.1751 39.2131C96.4165 38.723 96.7759 38.3168 97.2533 37.9944C97.7307 37.6721 98.2403 37.4916 98.782 37.4529C99.3289 37.4152 99.848 37.5212 100.339 37.771C100.834 38.0187 101.245 38.3859 101.574 38.8727C102.071 39.6091 102.242 40.3907 102.087 41.2176C101.934 42.0476 101.495 42.708 100.768 43.1989C100.041 43.6898 99.2636 43.8511 98.4366 43.6826C97.6117 43.5173 96.9507 43.0664 96.4535 42.33ZM97.2491 41.7928C97.5862 42.292 98.0349 42.5932 98.5952 42.6964C99.1577 42.8028 99.69 42.6863 100.192 42.3471C100.695 42.0079 101.002 41.5576 101.113 40.9962C101.227 40.4379 101.115 39.9092 100.778 39.4099C100.439 38.9076 99.9881 38.6033 99.4257 38.4969C98.8632 38.3906 98.3309 38.507 97.8285 38.8463C97.3261 39.1855 97.0192 39.6358 96.9076 40.1972C96.7961 40.7586 96.9099 41.2904 97.2491 41.7928Z" fill="white"/>
<path d="M105.371 45.6522L105.46 45.8288L104.542 46.2912L104.453 46.1147C104.174 45.5599 103.79 45.2033 103.301 45.0448C102.817 44.888 102.3 44.9485 101.748 45.2263L99.1157 46.5526L98.6685 45.665L103.934 43.0123L104.381 43.9L103.473 44.3573C104.344 44.4372 104.977 44.8688 105.371 45.6522Z" fill="white"/>
<path d="M105.135 53.6176C105.082 53.6363 104.94 53.6762 104.71 53.7373L103.023 48.9489C102.567 49.2175 102.253 49.5896 102.081 50.0653C101.914 50.5432 101.925 51.0503 102.114 51.5865C102.254 51.9842 102.467 52.3205 102.751 52.5955C103.039 52.8692 103.35 53.0532 103.682 53.1476L103.355 53.9873C102.88 53.8394 102.455 53.5799 102.081 53.2088C101.708 52.8413 101.428 52.3912 101.24 51.8586C100.934 50.9886 100.959 50.1654 101.316 49.3889C101.673 48.6124 102.269 48.0771 103.103 47.783C103.643 47.5928 104.177 47.5462 104.707 47.6432C105.241 47.7424 105.712 47.9713 106.122 48.3299C106.532 48.6885 106.833 49.1412 107.026 49.688C107.217 50.2313 107.265 50.7693 107.169 51.302C107.074 51.8347 106.847 52.306 106.488 52.7157C106.133 53.1242 105.682 53.4249 105.135 53.6176ZM106.159 49.9814C105.989 49.4985 105.691 49.1345 105.265 48.8893C104.843 48.6429 104.379 48.5591 103.872 48.638L105.221 52.4676C105.673 52.2087 105.984 51.8515 106.155 51.3961C106.329 50.9395 106.331 50.4679 106.159 49.9814Z" fill="white"/>
<path d="M65.5392 68.0524C65.5392 68.0524 66.6585 74.1692 66.2986 79.2588M69.7922 67.6365C70.7733 71.6119 70.8465 74.324 70.4415 76.1315M69.2323 54.4319C69.6065 55.1473 70.0742 56.1052 70.5768 57.2212M56.4891 55.527C56.4891 55.527 55.5203 57.0385 54.4287 58.9773M66.1846 64.4289C66.355 62.4837 65.8769 60.3696 65.4041 58.9749M61.3031 65.0415C61.5452 63.1847 61.3879 61.5929 61.1892 59.8123M54.4287 58.9773C51.9669 63.3494 48.4212 70.8641 51.4208 73.4625C55.294 76.8178 59.279 68.966 59.279 68.966C59.279 68.966 56.2643 86.3059 62.513 85.9845C65.079 85.8525 66.0479 82.805 66.2986 79.2588M54.4287 58.9773C54.4287 58.9773 51.0728 57.9473 51.0894 55.3576C51.1206 50.4735 73.5936 47.9253 74.1244 53.802C74.3746 56.5715 70.5768 57.2212 70.5768 57.2212M70.5768 57.2212C73.6144 63.9659 77.782 76.468 70.4415 76.1315M70.4415 76.1315C69.7458 79.2367 67.639 79.6728 66.2986 79.2588" stroke="white" stroke-width="1.73183"/>
<circle cx="62.5" cy="66.5" r="60" stroke="url(#paint0_radial_113_990)"/>
<circle cx="62" cy="67" r="29.5" stroke="url(#paint1_radial_113_990)"/>
<defs>
<radialGradient id="paint0_radial_113_990" cx="0" cy="0" r="1" gradientUnits="userSpaceOnUse" gradientTransform="translate(1.99999 55.8083) rotate(26.716) scale(158.356 1244.49)">
<stop stop-color="#E73C01"/>
<stop offset="0.697917" stop-color="#0512D2"/>
</radialGradient>
<radialGradient id="paint1_radial_113_990" cx="0" cy="0" r="1" gradientUnits="userSpaceOnUse" gradientTransform="translate(32 61.6983) rotate(26.716) scale(78.5236 617.102)">
<stop stop-color="#E73C01"/>
<stop offset="0.697917" stop-color="#0512D2"/>
</radialGradient>
</defs>
</svg>
