<svg width="65" height="66" viewBox="0 0 65 66" fill="none" xmlns="http://www.w3.org/2000/svg">
<g clip-path="url(#clip0_223_2435)">
<g opacity="0.56">
<path fill-rule="evenodd" clip-rule="evenodd" d="M32.5 62.5C48.7924 62.5 62 49.2924 62 33C62 16.7076 48.7924 3.5 32.5 3.5C16.2076 3.5 3 16.7076 3 33C3 49.2924 16.2076 62.5 32.5 62.5Z" stroke="white" stroke-width="1.22917"/>
</g>
<g clip-path="url(#clip1_223_2435)" filter="url(#filter0_d_223_2435)">
<path opacity="0.1" fill-rule="evenodd" clip-rule="evenodd" d="M32.5 55.125C44.7193 55.125 54.625 45.2193 54.625 33C54.625 20.7807 44.7193 10.875 32.5 10.875C20.2807 10.875 10.375 20.7807 10.375 33C10.375 45.2193 20.2807 55.125 32.5 55.125Z" fill="white"/>
<path d="M32.867 39.2753C31.5297 39.2753 30.4218 38.9344 29.5434 38.2527C28.6649 37.5578 28.147 36.6531 27.9897 35.5387L30.153 35.2437C30.2448 35.8861 30.5332 36.3974 31.0184 36.7777C31.5166 37.1579 32.1328 37.348 32.867 37.348C33.6537 37.348 34.2961 37.1382 34.7944 36.7187C35.2926 36.286 35.5417 35.7091 35.5417 34.988C35.5417 34.2931 35.2991 33.7359 34.814 33.3163C34.3289 32.8968 33.6012 32.687 32.631 32.687H32.1787V31.153H32.631C33.4964 31.153 34.1388 30.9498 34.5584 30.5433C34.991 30.1369 35.2074 29.6256 35.2074 29.0093C35.2074 28.3669 34.991 27.849 34.5584 27.4557C34.1388 27.0492 33.5947 26.846 32.926 26.846C32.2967 26.846 31.7657 27.0164 31.333 27.3573C30.9004 27.6851 30.6185 28.1309 30.4874 28.6947L28.383 28.4193C28.5404 27.4229 29.0386 26.5969 29.8777 25.9413C30.7299 25.2727 31.746 24.9383 32.926 24.9383C34.2371 24.9383 35.2991 25.3054 36.112 26.0397C36.938 26.7739 37.351 27.6851 37.351 28.7733C37.351 29.5469 37.1478 30.2024 36.7414 30.74C36.3349 31.2644 35.7777 31.6184 35.0697 31.802C35.8957 31.9724 36.5512 32.3527 37.0364 32.9427C37.5215 33.5196 37.764 34.2341 37.764 35.0863C37.764 36.3188 37.3117 37.3283 36.407 38.115C35.5024 38.8886 34.3224 39.2753 32.867 39.2753Z" fill="white"/>
</g>
</g>
<defs>
<filter id="filter0_d_223_2435" x="-8.0625" y="4.72917" width="81.125" height="81.125" filterUnits="userSpaceOnUse" color-interpolation-filters="sRGB">
<feFlood flood-opacity="0" result="BackgroundImageFix"/>
<feColorMatrix in="SourceAlpha" type="matrix" values="0 0 0 0 0 0 0 0 0 0 0 0 0 0 0 0 0 0 127 0" result="hardAlpha"/>
<feOffset dy="12.2917"/>
<feGaussianBlur stdDeviation="9.21875"/>
<feColorMatrix type="matrix" values="0 0 0 0 0.0823529 0 0 0 0 0.145098 0 0 0 0 0.278431 0 0 0 0.15 0"/>
<feBlend mode="normal" in2="BackgroundImageFix" result="effect1_dropShadow_223_2435"/>
<feBlend mode="normal" in="SourceGraphic" in2="effect1_dropShadow_223_2435" result="shape"/>
</filter>
<clipPath id="clip0_223_2435">
<rect width="65" height="65" fill="white" transform="translate(0 0.5)"/>
</clipPath>
<clipPath id="clip1_223_2435">
<rect width="44.25" height="44.25" fill="white" transform="translate(10.375 10.875)"/>
</clipPath>
</defs>
</svg>
